<svg version="1.1" width="800" height="500" xmlns="http://www.w3.org/2000/svg" style="font-family: sans-serif; background: white;">
<line x1="60" y1="440" x2="740" y2="440" stroke="black" stroke-width="2" />
<line x1="60" y1="60" x2="60" y2="440" stroke="black" stroke-width="2" />
<text x="400.0" y="490" font-size="14" fill="black" text-anchor="middle" >Total Tokens</text>
<text x="20" y="250.0" font-size="14" fill="black" text-anchor="middle" transform="rotate(-90 20 250.0)">Latence (s)</text>
<text x="400.0" y="30" font-size="18" fill="black" text-anchor="middle" >Performance: Latence vs Tokens</text>
<line x1="60.0" y1="440" x2="60.0" y2="445" stroke="black" stroke-width="1" />
<text x="60.0" y="460" font-size="10" fill="black" text-anchor="middle" >0</text>
<line x1="128.0" y1="440" x2="128.0" y2="445" stroke="black" stroke-width="1" />
<text x="128.0" y="460" font-size="10" fill="black" text-anchor="middle" >535</text>
<line x1="196.0" y1="440" x2="196.0" y2="445" stroke="black" stroke-width="1" />
<text x="196.0" y="460" font-size="10" fill="black" text-anchor="middle" >1070</text>
<line x1="264.0" y1="440" x2="264.0" y2="445" stroke="black" stroke-width="1" />
<text x="264.0" y="460" font-size="10" fill="black" text-anchor="middle" >1605</text>
<line x1="332.0" y1="440" x2="332.0" y2="445" stroke="black" stroke-width="1" />
<text x="332.0" y="460" font-size="10" fill="black" text-anchor="middle" >2140</text>
<line x1="400.0" y1="440" x2="400.0" y2="445" stroke="black" stroke-width="1" />
<text x="400.0" y="460" font-size="10" fill="black" text-anchor="middle" >2675</text>
<line x1="468.00000000000006" y1="440" x2="468.00000000000006" y2="445" stroke="black" stroke-width="1" />
<text x="468.00000000000006" y="460" font-size="10" fill="black" text-anchor="middle" >3210</text>
<line x1="536.0" y1="440" x2="536.0" y2="445" stroke="black" stroke-width="1" />
<text x="536.0" y="460" font-size="10" fill="black" text-anchor="middle" >3745</text>
<line x1="604.0" y1="440" x2="604.0" y2="445" stroke="black" stroke-width="1" />
<text x="604.0" y="460" font-size="10" fill="black" text-anchor="middle" >4280</text>
<line x1="672.0" y1="440" x2="672.0" y2="445" stroke="black" stroke-width="1" />
<text x="672.0" y="460" font-size="10" fill="black" text-anchor="middle" >4815</text>
<line x1="740.0" y1="440" x2="740.0" y2="445" stroke="black" stroke-width="1" />
<text x="740.0" y="460" font-size="10" fill="black" text-anchor="middle" >5350</text>
<line x1="55" y1="440.0" x2="60" y2="440.0" stroke="black" stroke-width="1" />
<text x="35" y="444.0" font-size="10" fill="black" text-anchor="end" >0.0</text>
<line x1="55" y1="402.0" x2="60" y2="402.0" stroke="black" stroke-width="1" />
<text x="35" y="406.0" font-size="10" fill="black" text-anchor="end" >1.3</text>
<line x1="55" y1="364.0" x2="60" y2="364.0" stroke="black" stroke-width="1" />
<text x="35" y="368.0" font-size="10" fill="black" text-anchor="end" >2.7</text>
<line x1="55" y1="326.0" x2="60" y2="326.0" stroke="black" stroke-width="1" />
<text x="35" y="330.0" font-size="10" fill="black" text-anchor="end" >4.0</text>
<line x1="55" y1="288.0" x2="60" y2="288.0" stroke="black" stroke-width="1" />
<text x="35" y="292.0" font-size="10" fill="black" text-anchor="end" >5.3</text>
<line x1="55" y1="250.0" x2="60" y2="250.0" stroke="black" stroke-width="1" />
<text x="35" y="254.0" font-size="10" fill="black" text-anchor="end" >6.7</text>
<line x1="55" y1="211.99999999999997" x2="60" y2="211.99999999999997" stroke="black" stroke-width="1" />
<text x="35" y="215.99999999999997" font-size="10" fill="black" text-anchor="end" >8.0</text>
<line x1="55" y1="174.0" x2="60" y2="174.0" stroke="black" stroke-width="1" />
<text x="35" y="178.0" font-size="10" fill="black" text-anchor="end" >9.4</text>
<line x1="55" y1="136.0" x2="60" y2="136.0" stroke="black" stroke-width="1" />
<text x="35" y="140.0" font-size="10" fill="black" text-anchor="end" >10.7</text>
<line x1="55" y1="98.0" x2="60" y2="98.0" stroke="black" stroke-width="1" />
<text x="35" y="102.0" font-size="10" fill="black" text-anchor="end" >12.0</text>
<line x1="55" y1="60.0" x2="60" y2="60.0" stroke="black" stroke-width="1" />
<text x="35" y="64.0" font-size="10" fill="black" text-anchor="end" >13.4</text>
<circle cx="83.89354066985646" cy="422.32109785864" r="6" fill="#e74c3c" stroke="white" fill-opacity="0.7" />
<circle cx="83.89354066985646" cy="422.31802830952034" r="6" fill="#e74c3c" stroke="white" fill-opacity="0.7" />
<circle cx="84.02063397129186" cy="423.6931727630208" r="6" fill="#e74c3c" stroke="white" fill-opacity="0.7" />
<circle cx="114.01465311004785" cy="422.7283653647905" r="6" fill="#3498db" stroke="white" fill-opacity="0.7" />
<circle cx="80.58911483253588" cy="433.83267275051634" r="6" fill="#e74c3c" stroke="white" fill-opacity="0.7" />
<circle cx="96.98415071770334" cy="433.2474120517071" r="6" fill="#e74c3c" stroke="white" fill-opacity="0.7" />
<circle cx="104.48265550239235" cy="410.76998473472605" r="6" fill="#e74c3c" stroke="white" fill-opacity="0.7" />
<circle cx="124.94467703349282" cy="424.1966262509663" r="6" fill="#3498db" stroke="white" fill-opacity="0.7" />
<circle cx="112.74372009569379" cy="406.0418016990848" r="6" fill="#2ecc71" stroke="white" fill-opacity="0.7" />
<circle cx="96.2215909090909" cy="433.6884920304999" r="6" fill="#e74c3c" stroke="white" fill-opacity="0.7" />
<circle cx="95.84031100478468" cy="433.8600073225883" r="6" fill="#e74c3c" stroke="white" fill-opacity="0.7" />
<circle cx="95.96740430622009" cy="431.4549308867763" r="6" fill="#e74c3c" stroke="white" fill-opacity="0.7" />
<circle cx="130.1555023923445" cy="297.71228380009074" r="6" fill="#e74c3c" stroke="white" fill-opacity="0.7" />
<circle cx="129.64712918660285" cy="433.7730299881522" r="6" fill="#3498db" stroke="white" fill-opacity="0.7" />
<circle cx="127.99491626794257" cy="368.75936979021765" r="6" fill="#2ecc71" stroke="white" fill-opacity="0.7" />
<circle cx="100.79694976076554" cy="416.74605806831227" r="6" fill="#e74c3c" stroke="white" fill-opacity="0.7" />
<circle cx="122.7840909090909" cy="436.8730916457185" r="6" fill="#3498db" stroke="white" fill-opacity="0.7" />
<circle cx="108.54964114832535" cy="410.293086573491" r="6" fill="#2ecc71" stroke="white" fill-opacity="0.7" />
<circle cx="101.05113636363636" cy="404.6966344758387" r="6" fill="#e74c3c" stroke="white" fill-opacity="0.7" />
<circle cx="131.29934210526315" cy="411.52364374417766" r="6" fill="#3498db" stroke="white" fill-opacity="0.7" />
<circle cx="120.7505980861244" cy="394.69007374701425" r="6" fill="#2ecc71" stroke="white" fill-opacity="0.7" />
<circle cx="141.8480861244019" cy="375.08720803207603" r="6" fill="#e74c3c" stroke="white" fill-opacity="0.7" />
<circle cx="122.7840909090909" cy="436.8020109166569" r="6" fill="#3498db" stroke="white" fill-opacity="0.7" />
<circle cx="111.59988038277511" cy="393.1456500968105" r="6" fill="#2ecc71" stroke="white" fill-opacity="0.7" />
<circle cx="181.882476076555" cy="347.4674253817957" r="6" fill="#e74c3c" stroke="white" fill-opacity="0.7" />
<circle cx="122.27571770334927" cy="433.939808823652" r="6" fill="#3498db" stroke="white" fill-opacity="0.7" />
<circle cx="115.15849282296651" cy="384.51072382933654" r="6" fill="#2ecc71" stroke="white" fill-opacity="0.7" />
<circle cx="129.01166267942583" cy="334.4058637054392" r="6" fill="#e74c3c" stroke="white" fill-opacity="0.7" />
<circle cx="129.64712918660285" cy="439.4909698256849" r="6" fill="#3498db" stroke="white" fill-opacity="0.7" />
<circle cx="127.23235645933013" cy="377.66836003935276" r="6" fill="#2ecc71" stroke="white" fill-opacity="0.7" />
<circle cx="169.80861244019138" cy="307.946397726565" r="6" fill="#e74c3c" stroke="white" fill-opacity="0.7" />
<circle cx="122.7840909090909" cy="437.0303636878081" r="6" fill="#3498db" stroke="white" fill-opacity="0.7" />
<circle cx="110.58313397129186" cy="387.40448197145867" r="6" fill="#2ecc71" stroke="white" fill-opacity="0.7" />
<circle cx="100.54276315789474" cy="412.5834987483706" r="6" fill="#e74c3c" stroke="white" fill-opacity="0.7" />
<circle cx="122.7840909090909" cy="438.1861946163507" r="6" fill="#3498db" stroke="white" fill-opacity="0.7" />
<circle cx="109.69348086124401" cy="402.37846083795" r="6" fill="#2ecc71" stroke="white" fill-opacity="0.7" />
<circle cx="141.21261961722487" cy="380.2415908481288" r="6" fill="#e74c3c" stroke="white" fill-opacity="0.7" />
<circle cx="122.7840909090909" cy="433.79625827597135" r="6" fill="#3498db" stroke="white" fill-opacity="0.7" />
<circle cx="109.3122009569378" cy="396.5957826509936" r="6" fill="#2ecc71" stroke="white" fill-opacity="0.7" />
<circle cx="134.98504784688993" cy="299.8816961104467" r="6" fill="#e74c3c" stroke="white" fill-opacity="0.7" />
<circle cx="140.45005980861242" cy="412.4446101207657" r="6" fill="#3498db" stroke="white" fill-opacity="0.7" />
<circle cx="140.95843301435406" cy="373.78557690837437" r="6" fill="#2ecc71" stroke="white" fill-opacity="0.7" />
<circle cx="100.79694976076554" cy="408.0457158467524" r="6" fill="#e74c3c" stroke="white" fill-opacity="0.7" />
<circle cx="122.7840909090909" cy="433.9299700039573" r="6" fill="#3498db" stroke="white" fill-opacity="0.7" />
<circle cx="112.10825358851673" cy="384.995746470471" r="6" fill="#2ecc71" stroke="white" fill-opacity="0.7" />
<circle cx="110.07476076555024" cy="285.5365275944023" r="6" fill="#e74c3c" stroke="white" fill-opacity="0.7" />
<circle cx="133.33283492822966" cy="428.3022193469594" r="6" fill="#3498db" stroke="white" fill-opacity="0.7" />
<circle cx="116.17523923444975" cy="393.41734923820076" r="6" fill="#2ecc71" stroke="white" fill-opacity="0.7" />
<circle cx="150.61752392344496" cy="256.7699126054929" r="6" fill="#e74c3c" stroke="white" fill-opacity="0.7" />
<circle cx="122.7840909090909" cy="434.00700010195277" r="6" fill="#3498db" stroke="white" fill-opacity="0.7" />
<circle cx="112.61662679425837" cy="367.86903792040636" r="6" fill="#2ecc71" stroke="white" fill-opacity="0.7" />
<circle cx="100.54276315789474" cy="410.6567569956775" r="6" fill="#e74c3c" stroke="white" fill-opacity="0.7" />
<circle cx="122.7840909090909" cy="433.8438464513955" r="6" fill="#3498db" stroke="white" fill-opacity="0.7" />
<circle cx="108.04126794258373" cy="409.25763888922944" r="6" fill="#2ecc71" stroke="white" fill-opacity="0.7" />
<circle cx="100.79694976076554" cy="410.5989234377613" r="6" fill="#e74c3c" stroke="white" fill-opacity="0.7" />
<circle cx="122.7840909090909" cy="437.77764643738874" r="6" fill="#3498db" stroke="white" fill-opacity="0.7" />
<circle cx="108.29545454545453" cy="393.15246002366536" r="6" fill="#2ecc71" stroke="white" fill-opacity="0.7" />
<circle cx="141.4668062200957" cy="384.1891326566708" r="6" fill="#e74c3c" stroke="white" fill-opacity="0.7" />
<circle cx="122.9111842105263" cy="437.8123330200452" r="6" fill="#3498db" stroke="white" fill-opacity="0.7" />
<circle cx="108.80382775119617" cy="410.7606473424813" r="6" fill="#2ecc71" stroke="white" fill-opacity="0.7" />
<circle cx="99.52601674641147" cy="415.20784805286064" r="6" fill="#e74c3c" stroke="white" fill-opacity="0.7" />
<circle cx="124.5633971291866" cy="422.5148724638807" r="6" fill="#3498db" stroke="white" fill-opacity="0.7" />
<circle cx="109.5663875598086" cy="422.04881597724034" r="6" fill="#2ecc71" stroke="white" fill-opacity="0.7" />
<circle cx="140.19587320574163" cy="300.0973573462755" r="6" fill="#e74c3c" stroke="white" fill-opacity="0.7" />
<circle cx="106.26196172248802" cy="432.6507811466667" r="6" fill="#3498db" stroke="white" fill-opacity="0.7" />
<circle cx="124.18211722488037" cy="366.4988264288464" r="6" fill="#2ecc71" stroke="white" fill-opacity="0.7" />
<circle cx="112.48953349282296" cy="381.71787457350473" r="6" fill="#e74c3c" stroke="white" fill-opacity="0.7" />
<circle cx="101.05113636363636" cy="419.39711177253844" r="6" fill="#3498db" stroke="white" fill-opacity="0.7" />
<circle cx="119.98803827751196" cy="387.7631719993782" r="6" fill="#2ecc71" stroke="white" fill-opacity="0.7" />
<circle cx="119.98803827751196" cy="415.30709680772867" r="6" fill="#e74c3c" stroke="white" fill-opacity="0.7" />
<circle cx="125.96142344497608" cy="421.84473500508807" r="6" fill="#3498db" stroke="white" fill-opacity="0.7" />
<circle cx="184.55143540669854" cy="397.5140928173059" r="6" fill="#e74c3c" stroke="white" fill-opacity="0.7" />
<circle cx="106.00777511961722" cy="419.32673575232553" r="6" fill="#2ecc71" stroke="white" fill-opacity="0.7" />
<circle cx="247.20843301435406" cy="354.7345659824004" r="6" fill="#e74c3c" stroke="white" fill-opacity="0.7" />
<circle cx="128.3761961722488" cy="426.091385063605" r="6" fill="#3498db" stroke="white" fill-opacity="0.7" />
<circle cx="316.7284688995215" cy="323.2695598275657" r="6" fill="#e74c3c" stroke="white" fill-opacity="0.7" />
<circle cx="128.50328947368422" cy="427.9911039423708" r="6" fill="#3498db" stroke="white" fill-opacity="0.7" />
<circle cx="388.15490430622003" cy="302.8816755594106" r="6" fill="#e74c3c" stroke="white" fill-opacity="0.7" />
<circle cx="116.17523923444975" cy="411.48298068840086" r="6" fill="#2ecc71" stroke="white" fill-opacity="0.7" />
<circle cx="129.64712918660285" cy="409.2632901121119" r="6" fill="#e74c3c" stroke="white" fill-opacity="0.7" />
<circle cx="126.21561004784688" cy="439.02565870417294" r="6" fill="#3498db" stroke="white" fill-opacity="0.7" />
<circle cx="202.85287081339712" cy="394.6421196650725" r="6" fill="#e74c3c" stroke="white" fill-opacity="0.7" />
<circle cx="105.626495215311" cy="401.84773376235216" r="6" fill="#2ecc71" stroke="white" fill-opacity="0.7" />
<circle cx="136.12888755980862" cy="393.2023588309875" r="6" fill="#e74c3c" stroke="white" fill-opacity="0.7" />
<circle cx="132.6973684210526" cy="422.351081864941" r="6" fill="#3498db" stroke="white" fill-opacity="0.7" />
<circle cx="214.16417464114832" cy="353.510845842755" r="6" fill="#e74c3c" stroke="white" fill-opacity="0.7" />
<circle cx="126.34270334928229" cy="429.86159095601056" r="6" fill="#3498db" stroke="white" fill-opacity="0.7" />
<circle cx="299.3166866028708" cy="292.1583717231295" r="6" fill="#e74c3c" stroke="white" fill-opacity="0.7" />
<circle cx="128.24910287081337" cy="430.67512988945816" r="6" fill="#3498db" stroke="white" fill-opacity="0.7" />
<circle cx="387.0110645933014" cy="252.54832714342965" r="6" fill="#e74c3c" stroke="white" fill-opacity="0.7" />
<circle cx="126.4697966507177" cy="431.5900317043197" r="6" fill="#3498db" stroke="white" fill-opacity="0.7" />
<circle cx="479.53498803827745" cy="211.50388158252255" r="6" fill="#e74c3c" stroke="white" fill-opacity="0.7" />
<circle cx="126.4697966507177" cy="428.20444777025494" r="6" fill="#3498db" stroke="white" fill-opacity="0.7" />
<circle cx="576.6342703349281" cy="170.56918087270049" r="6" fill="#e74c3c" stroke="white" fill-opacity="0.7" />
<circle cx="126.4697966507177" cy="431.18405164702733" r="6" fill="#3498db" stroke="white" fill-opacity="0.7" />
<circle cx="678.1818181818181" cy="94.54545454545462" r="6" fill="#e74c3c" stroke="white" fill-opacity="0.7" />
<circle cx="129.64712918660285" cy="393.2565943081476" r="6" fill="#e74c3c" stroke="white" fill-opacity="0.7" />
<circle cx="126.21561004784688" cy="414.0543548604025" r="6" fill="#3498db" stroke="white" fill-opacity="0.7" />
<circle cx="202.85287081339712" cy="363.96322978300736" r="6" fill="#e74c3c" stroke="white" fill-opacity="0.7" />
<circle cx="105.626495215311" cy="416.5238240672605" r="6" fill="#2ecc71" stroke="white" fill-opacity="0.7" />
<circle cx="272.24581339712915" cy="326.7416874290828" r="6" fill="#e74c3c" stroke="white" fill-opacity="0.7" />
<circle cx="125.96142344497608" cy="417.252282959326" r="6" fill="#3498db" stroke="white" fill-opacity="0.7" />
<circle cx="351.67912679425837" cy="279.72642674676786" r="6" fill="#e74c3c" stroke="white" fill-opacity="0.7" />
<circle cx="125.70723684210525" cy="429.4824914756665" r="6" fill="#3498db" stroke="white" fill-opacity="0.7" />
<circle cx="428.443480861244" cy="238.7348275734634" r="6" fill="#e74c3c" stroke="white" fill-opacity="0.7" />
<circle cx="110.32894736842104" cy="404.7186837315457" r="6" fill="#2ecc71" stroke="white" fill-opacity="0.7" />
<circle cx="130.02840909090907" cy="395.9867922369152" r="6" fill="#e74c3c" stroke="white" fill-opacity="0.7" />
<circle cx="126.7239832535885" cy="418.55211165462634" r="6" fill="#3498db" stroke="white" fill-opacity="0.7" />
<circle cx="203.23415071770336" cy="370.43637356862143" r="6" fill="#e74c3c" stroke="white" fill-opacity="0.7" />
<circle cx="105.626495215311" cy="407.8205478175134" r="6" fill="#2ecc71" stroke="white" fill-opacity="0.7" />
<circle cx="272.62709330143537" cy="326.83326569917506" r="6" fill="#e74c3c" stroke="white" fill-opacity="0.7" />
<circle cx="125.96142344497608" cy="416.24390558131813" r="6" fill="#3498db" stroke="white" fill-opacity="0.7" />
<circle cx="351.80622009569373" cy="276.8405288187269" r="6" fill="#e74c3c" stroke="white" fill-opacity="0.7" />
<circle cx="125.58014354066985" cy="428.6693862092027" r="6" fill="#3498db" stroke="white" fill-opacity="0.7" />
<circle cx="427.4267344497607" cy="259.6412352572506" r="6" fill="#e74c3c" stroke="white" fill-opacity="0.7" />
<circle cx="111.98116028708134" cy="387.0800787394449" r="6" fill="#2ecc71" stroke="white" fill-opacity="0.7" />
<circle cx="115.0313995215311" cy="402.18150826684376" r="6" fill="#e74c3c" stroke="white" fill-opacity="0.7" />
<circle cx="128.24910287081337" cy="416.36357734070396" r="6" fill="#3498db" stroke="white" fill-opacity="0.7" />
<circle cx="113.37918660287082" cy="390.91011034747345" r="6" fill="#2ecc71" stroke="white" fill-opacity="0.7" />
<circle cx="104.60974880382774" cy="407.57162296881876" r="6" fill="#e74c3c" stroke="white" fill-opacity="0.7" />
<circle cx="128.24910287081337" cy="431.3395551409487" r="6" fill="#3498db" stroke="white" fill-opacity="0.7" />
<circle cx="111.98116028708134" cy="407.73256762817726" r="6" fill="#2ecc71" stroke="white" fill-opacity="0.7" />
<circle cx="110.58313397129186" cy="384.59764017935305" r="6" fill="#e74c3c" stroke="white" fill-opacity="0.7" />
<circle cx="128.88456937799043" cy="425.45451799372495" r="6" fill="#3498db" stroke="white" fill-opacity="0.7" />
<circle cx="130.5367822966507" cy="419.197780809068" r="6" fill="#3498db" stroke="white" fill-opacity="0.7" />
<circle cx="123.80083732057415" cy="395.68269004058004" r="6" fill="#2ecc71" stroke="white" fill-opacity="0.7" />
<circle cx="115.41267942583733" cy="404.81473419240825" r="6" fill="#e74c3c" stroke="white" fill-opacity="0.7" />
<circle cx="110.71022727272728" cy="416.4052771316139" r="6" fill="#3498db" stroke="white" fill-opacity="0.7" />
<circle cx="107.40580143540669" cy="414.53109039651866" r="6" fill="#2ecc71" stroke="white" fill-opacity="0.7" />
<circle cx="117.19198564593302" cy="394.5516729947661" r="6" fill="#e74c3c" stroke="white" fill-opacity="0.7" />
<circle cx="103.59300239234449" cy="425.1019196317183" r="6" fill="#3498db" stroke="white" fill-opacity="0.7" />
<circle cx="113.63337320574162" cy="394.30626491426807" r="6" fill="#2ecc71" stroke="white" fill-opacity="0.7" />
<circle cx="115.0313995215311" cy="413.67831815313144" r="6" fill="#e74c3c" stroke="white" fill-opacity="0.7" />
<circle cx="103.59300239234449" cy="427.9982662236499" r="6" fill="#3498db" stroke="white" fill-opacity="0.7" />
<circle cx="109.4392942583732" cy="409.11935332977384" r="6" fill="#2ecc71" stroke="white" fill-opacity="0.7" />
<circle cx="115.0313995215311" cy="409.6625618832488" r="6" fill="#e74c3c" stroke="white" fill-opacity="0.7" />
<circle cx="110.71022727272728" cy="416.44808141812314" r="6" fill="#3498db" stroke="white" fill-opacity="0.7" />
<circle cx="104.22846889952152" cy="404.7304876047607" r="6" fill="#2ecc71" stroke="white" fill-opacity="0.7" />
<circle cx="115.0313995215311" cy="410.8063246727582" r="6" fill="#e74c3c" stroke="white" fill-opacity="0.7" />
<circle cx="110.71022727272728" cy="422.1001309783064" r="6" fill="#3498db" stroke="white" fill-opacity="0.7" />
<circle cx="104.22846889952152" cy="417.84211071355827" r="6" fill="#2ecc71" stroke="white" fill-opacity="0.7" />
<circle cx="115.15849282296651" cy="410.6761364890155" r="6" fill="#e74c3c" stroke="white" fill-opacity="0.7" />
<circle cx="110.71022727272728" cy="419.36428860270297" r="6" fill="#3498db" stroke="white" fill-opacity="0.7" />
<circle cx="104.22846889952152" cy="416.24690736997155" r="6" fill="#2ecc71" stroke="white" fill-opacity="0.7" />
<circle cx="114.65011961722487" cy="416.2943803526032" r="6" fill="#e74c3c" stroke="white" fill-opacity="0.7" />
<circle cx="116.04814593301435" cy="404.65946108407206" r="6" fill="#e74c3c" stroke="white" fill-opacity="0.7" />
<circle cx="115.53977272727272" cy="404.75590455563866" r="6" fill="#e74c3c" stroke="white" fill-opacity="0.7" />
<circle cx="185.05980861244018" cy="337.6624588160134" r="6" fill="#e74c3c" stroke="white" fill-opacity="0.7" />
<circle cx="117.57326555023923" cy="407.4439351462795" r="6" fill="#e74c3c" stroke="white" fill-opacity="0.7" />
<circle cx="116.81070574162678" cy="410.2138949166232" r="6" fill="#e74c3c" stroke="white" fill-opacity="0.7" />
<circle cx="116.55651913875597" cy="409.01354536177604" r="6" fill="#e74c3c" stroke="white" fill-opacity="0.7" />
<circle cx="115.79395933014354" cy="407.84642553956166" r="6" fill="#e74c3c" stroke="white" fill-opacity="0.7" />
<circle cx="116.81070574162678" cy="390.2198819104475" r="6" fill="#e74c3c" stroke="white" fill-opacity="0.7" />
<circle cx="115.79395933014354" cy="410.67170495452496" r="6" fill="#e74c3c" stroke="white" fill-opacity="0.7" />
<circle cx="115.79395933014354" cy="409.701856177608" r="6" fill="#e74c3c" stroke="white" fill-opacity="0.7" />
<circle cx="114.77721291866027" cy="410.7096372635132" r="6" fill="#e74c3c" stroke="white" fill-opacity="0.7" />
<circle cx="114.77721291866027" cy="438.8264768137281" r="6" fill="#e74c3c" stroke="white" fill-opacity="0.7" />
<circle cx="117.57326555023923" cy="404.8669571837217" r="6" fill="#e74c3c" stroke="white" fill-opacity="0.7" />
<circle cx="114.90430622009569" cy="413.6927037001093" r="6" fill="#e74c3c" stroke="white" fill-opacity="0.7" />
<circle cx="114.90430622009569" cy="410.32189832372643" r="6" fill="#e74c3c" stroke="white" fill-opacity="0.7" />
<circle cx="115.0313995215311" cy="422.16478123912407" r="6" fill="#e74c3c" stroke="white" fill-opacity="0.7" />
<circle cx="119.98803827751196" cy="399.12658185582455" r="6" fill="#e74c3c" stroke="white" fill-opacity="0.7" />
<circle cx="116.17523923444975" cy="416.6037204329769" r="6" fill="#e74c3c" stroke="white" fill-opacity="0.7" />
<circle cx="117.82745215311004" cy="401.9410263722397" r="6" fill="#e74c3c" stroke="white" fill-opacity="0.7" />
<circle cx="118.97129186602871" cy="404.9760312061911" r="6" fill="#e74c3c" stroke="white" fill-opacity="0.7" />
<circle cx="115.41267942583733" cy="414.9841097694588" r="6" fill="#e74c3c" stroke="white" fill-opacity="0.7" />
<circle cx="159.2598684210526" cy="291.5105613379554" r="6" fill="#e74c3c" stroke="white" fill-opacity="0.7" />
<circle cx="117.44617224880382" cy="416.0964452547368" r="6" fill="#e74c3c" stroke="white" fill-opacity="0.7" />
<circle cx="95.45903110047847" cy="425.33293538919185" r="6" fill="#3498db" stroke="white" fill-opacity="0.7" />
<circle cx="103.8471889952153" cy="418.6806126027602" r="6" fill="#2ecc71" stroke="white" fill-opacity="0.7" />
<circle cx="116.04814593301435" cy="410.7668880814199" r="6" fill="#e74c3c" stroke="white" fill-opacity="0.7" />
<circle cx="91.51913875598086" cy="430.90194449802624" r="6" fill="#3498db" stroke="white" fill-opacity="0.7" />
<circle cx="107.15161483253587" cy="401.2384587543157" r="6" fill="#2ecc71" stroke="white" fill-opacity="0.7" />
<circle cx="115.79395933014354" cy="413.5697184539255" r="6" fill="#e74c3c" stroke="white" fill-opacity="0.7" />
<circle cx="93.17135167464114" cy="419.30999891716993" r="6" fill="#3498db" stroke="white" fill-opacity="0.7" />
<circle cx="104.10137559808612" cy="412.0615873094276" r="6" fill="#2ecc71" stroke="white" fill-opacity="0.7" />
<circle cx="119.86094497607655" cy="403.21709824808437" r="6" fill="#e74c3c" stroke="white" fill-opacity="0.7" />
<circle cx="97.74671052631578" cy="425.198254686539" r="6" fill="#3498db" stroke="white" fill-opacity="0.7" />
<circle cx="103.8471889952153" cy="406.7018699525976" r="6" fill="#2ecc71" stroke="white" fill-opacity="0.7" />
<circle cx="116.55651913875597" cy="412.42502734602897" r="6" fill="#e74c3c" stroke="white" fill-opacity="0.7" />
<circle cx="116.55651913875597" cy="399.15752806074585" r="6" fill="#e74c3c" stroke="white" fill-opacity="0.7" />
<circle cx="99.14473684210526" cy="413.86407669521867" r="6" fill="#3498db" stroke="white" fill-opacity="0.7" />
<circle cx="103.59300239234449" cy="409.08358935570453" r="6" fill="#2ecc71" stroke="white" fill-opacity="0.7" />
<circle cx="118.46291866028707" cy="413.59508797247713" r="6" fill="#e74c3c" stroke="white" fill-opacity="0.7" />
<circle cx="107.6599880382775" cy="387.445870064224" r="6" fill="#3498db" stroke="white" fill-opacity="0.7" />
<circle cx="105.11812200956938" cy="421.64237514877766" r="6" fill="#2ecc71" stroke="white" fill-opacity="0.7" />
<circle cx="117.31907894736841" cy="414.79194786331414" r="6" fill="#e74c3c" stroke="white" fill-opacity="0.7" />
<circle cx="117.06489234449761" cy="416.661967329737" r="6" fill="#e74c3c" stroke="white" fill-opacity="0.7" />
<circle cx="95.33193779904306" cy="425.68041105995246" r="6" fill="#3498db" stroke="white" fill-opacity="0.7" />
<circle cx="109.18510765550238" cy="404.6026371571025" r="6" fill="#2ecc71" stroke="white" fill-opacity="0.7" />
<circle cx="120.24222488038276" cy="398.98942112010815" r="6" fill="#e74c3c" stroke="white" fill-opacity="0.7" />
<circle cx="98.38217703349281" cy="431.5528921927862" r="6" fill="#3498db" stroke="white" fill-opacity="0.7" />
<circle cx="105.49940191387559" cy="401.76208453305395" r="6" fill="#2ecc71" stroke="white" fill-opacity="0.7" />
<circle cx="116.81070574162678" cy="414.69636494966846" r="6" fill="#e74c3c" stroke="white" fill-opacity="0.7" />
<circle cx="93.29844497607655" cy="431.09042701085536" r="6" fill="#3498db" stroke="white" fill-opacity="0.7" />
<circle cx="132.3160885167464" cy="370.12903919804774" r="6" fill="#e74c3c" stroke="white" fill-opacity="0.7" />
<circle cx="100.41566985645932" cy="425.10305123150414" r="6" fill="#3498db" stroke="white" fill-opacity="0.7" />
<circle cx="96.3486842105263" cy="434.2161766611645" r="6" fill="#3498db" stroke="white" fill-opacity="0.7" />
<circle cx="117.70035885167464" cy="407.7398857585287" r="6" fill="#e74c3c" stroke="white" fill-opacity="0.7" />
<circle cx="93.29844497607655" cy="437.128270785445" r="6" fill="#3498db" stroke="white" fill-opacity="0.7" />
<circle cx="119.35257177033492" cy="408.7010205394901" r="6" fill="#e74c3c" stroke="white" fill-opacity="0.7" />
<circle cx="100.0343899521531" cy="416.4831677875303" r="6" fill="#3498db" stroke="white" fill-opacity="0.7" />
<circle cx="117.70035885167464" cy="406.1392954578778" r="6" fill="#e74c3c" stroke="white" fill-opacity="0.7" />
<circle cx="96.60287081339712" cy="422.1041423979065" r="6" fill="#3498db" stroke="white" fill-opacity="0.7" />
<circle cx="116.81070574162678" cy="408.8758086620968" r="6" fill="#e74c3c" stroke="white" fill-opacity="0.7" />
<circle cx="127.99491626794257" cy="378.59386636717727" r="6" fill="#e74c3c" stroke="white" fill-opacity="0.7" />
<circle cx="117.70035885167464" cy="403.3409372761425" r="6" fill="#e74c3c" stroke="white" fill-opacity="0.7" />
<circle cx="124.81758373205741" cy="388.3074850484525" r="6" fill="#e74c3c" stroke="white" fill-opacity="0.7" />
<circle cx="115.53977272727272" cy="416.3558187673221" r="6" fill="#e74c3c" stroke="white" fill-opacity="0.7" />
<circle cx="115.53977272727272" cy="416.25889419644534" r="6" fill="#e74c3c" stroke="white" fill-opacity="0.7" />
<circle cx="91.13785885167464" cy="436.74742986111914" r="6" fill="#3498db" stroke="white" fill-opacity="0.7" />
<circle cx="116.55651913875597" cy="408.93188722393796" r="6" fill="#e74c3c" stroke="white" fill-opacity="0.7" />
<circle cx="99.9072966507177" cy="410.5019920908379" r="6" fill="#3498db" stroke="white" fill-opacity="0.7" />
<circle cx="115.92105263157895" cy="410.8088656902413" r="6" fill="#e74c3c" stroke="white" fill-opacity="0.7" />
<circle cx="91.39204545454545" cy="430.93039711779073" r="6" fill="#3498db" stroke="white" fill-opacity="0.7" />
<circle cx="152.7781100478469" cy="253.38243137837406" r="6" fill="#e74c3c" stroke="white" fill-opacity="0.7" />
<circle cx="101.17822966507177" cy="412.801118261673" r="6" fill="#3498db" stroke="white" fill-opacity="0.7" />
<circle cx="98.63636363636363" cy="416.37044825197836" r="6" fill="#3498db" stroke="white" fill-opacity="0.7" />
<circle cx="115.0313995215311" cy="367.0778870449968" r="6" fill="#3498db" stroke="white" fill-opacity="0.7" />
<circle cx="105.88068181818181" cy="405.8693919688423" r="6" fill="#3498db" stroke="white" fill-opacity="0.7" />
<circle cx="114.77721291866027" cy="404.88189836652253" r="6" fill="#e74c3c" stroke="white" fill-opacity="0.7" />
<circle cx="99.01764354066985" cy="407.68670056859503" r="6" fill="#3498db" stroke="white" fill-opacity="0.7" />
<circle cx="114.77721291866027" cy="404.9187803882844" r="6" fill="#e74c3c" stroke="white" fill-opacity="0.7" />
<circle cx="93.17135167464114" cy="419.97580648217127" r="6" fill="#3498db" stroke="white" fill-opacity="0.7" />
<circle cx="114.90430622009569" cy="415.2994195469063" r="6" fill="#e74c3c" stroke="white" fill-opacity="0.7" />
<circle cx="114.77721291866027" cy="407.45720264556473" r="6" fill="#e74c3c" stroke="white" fill-opacity="0.7" />
<circle cx="99.01764354066985" cy="404.66599319301537" r="6" fill="#3498db" stroke="white" fill-opacity="0.7" />
<circle cx="114.77721291866027" cy="417.01132674145845" r="6" fill="#e74c3c" stroke="white" fill-opacity="0.7" />
<circle cx="99.01764354066985" cy="410.4599806017834" r="6" fill="#3498db" stroke="white" fill-opacity="0.7" />
<circle cx="114.90430622009569" cy="413.87738485078364" r="6" fill="#e74c3c" stroke="white" fill-opacity="0.7" />
<circle cx="102.19497607655502" cy="405.5243624509121" r="6" fill="#3498db" stroke="white" fill-opacity="0.7" />
<circle cx="114.90430622009569" cy="416.6171573334277" r="6" fill="#e74c3c" stroke="white" fill-opacity="0.7" />
<circle cx="99.01764354066985" cy="411.0949503786094" r="6" fill="#3498db" stroke="white" fill-opacity="0.7" />
<circle cx="115.92105263157895" cy="410.7113583793551" r="6" fill="#e74c3c" stroke="white" fill-opacity="0.7" />
<circle cx="94.3151913875598" cy="420.2156649804861" r="6" fill="#3498db" stroke="white" fill-opacity="0.7" />
<circle cx="114.77721291866027" cy="395.86517575214896" r="6" fill="#e74c3c" stroke="white" fill-opacity="0.7" />
<circle cx="99.01764354066985" cy="416.48375052753977" r="6" fill="#3498db" stroke="white" fill-opacity="0.7" />
<circle cx="114.90430622009569" cy="416.4851531691904" r="6" fill="#e74c3c" stroke="white" fill-opacity="0.7" />
<circle cx="98.76345693779905" cy="413.1949217631862" r="6" fill="#3498db" stroke="white" fill-opacity="0.7" />
<circle cx="120.24222488038276" cy="395.9986299903633" r="6" fill="#e74c3c" stroke="white" fill-opacity="0.7" />
<circle cx="92.79007177033492" cy="423.9565238149731" r="6" fill="#3498db" stroke="white" fill-opacity="0.7" />
<circle cx="92.66297846889952" cy="419.3220196238768" r="6" fill="#3498db" stroke="white" fill-opacity="0.7" />
<circle cx="115.41267942583733" cy="403.5100606237734" r="6" fill="#e74c3c" stroke="white" fill-opacity="0.7" />
<circle cx="93.55263157894737" cy="419.32397112530384" r="6" fill="#3498db" stroke="white" fill-opacity="0.7" />
<circle cx="114.90430622009569" cy="405.5050574940869" r="6" fill="#2ecc71" stroke="white" fill-opacity="0.7" />
<circle cx="119.22547846889952" cy="393.2110389467099" r="6" fill="#e74c3c" stroke="white" fill-opacity="0.7" />
<circle cx="92.79007177033492" cy="425.226124566294" r="6" fill="#3498db" stroke="white" fill-opacity="0.7" />
<circle cx="92.66297846889952" cy="424.47915351485796" r="6" fill="#3498db" stroke="white" fill-opacity="0.7" />
<circle cx="122.9111842105263" cy="408.09630581083" r="6" fill="#2ecc71" stroke="white" fill-opacity="0.7" />
<circle cx="114.77721291866027" cy="415.1537074403533" r="6" fill="#e74c3c" stroke="white" fill-opacity="0.7" />
<circle cx="119.47966507177033" cy="391.3068817574069" r="6" fill="#e74c3c" stroke="white" fill-opacity="0.7" />
<circle cx="92.79007177033492" cy="424.92301167276565" r="6" fill="#3498db" stroke="white" fill-opacity="0.7" />
<circle cx="92.40879186602871" cy="424.18631988405474" r="6" fill="#3498db" stroke="white" fill-opacity="0.7" />
<circle cx="126.7239832535885" cy="398.59757589606863" r="6" fill="#2ecc71" stroke="white" fill-opacity="0.7" />
<circle cx="129.77422248803828" cy="371.18221302027166" r="6" fill="#e74c3c" stroke="white" fill-opacity="0.7" />
<circle cx="100.16148325358851" cy="418.18439593260666" r="6" fill="#3498db" stroke="white" fill-opacity="0.7" />
<circle cx="99.27183014354067" cy="423.34730301530954" r="6" fill="#3498db" stroke="white" fill-opacity="0.7" />
<circle cx="152.52392344497605" cy="377.643566484764" r="6" fill="#2ecc71" stroke="white" fill-opacity="0.7" />
<circle cx="185.05980861244018" cy="350.57677699928036" r="6" fill="#e74c3c" stroke="white" fill-opacity="0.7" />
<circle cx="96.85705741626793" cy="419.3547072727799" r="6" fill="#3498db" stroke="white" fill-opacity="0.7" />
<circle cx="149.98205741626793" cy="373.00416321196025" r="6" fill="#2ecc71" stroke="white" fill-opacity="0.7" />
<circle cx="114.77721291866027" cy="413.84049605297514" r="6" fill="#e74c3c" stroke="white" fill-opacity="0.7" />
<circle cx="97.61961722488039" cy="413.6685945262293" r="6" fill="#3498db" stroke="white" fill-opacity="0.7" />
<circle cx="135.74760765550238" cy="365.2573598230988" r="6" fill="#2ecc71" stroke="white" fill-opacity="0.7" />
<circle cx="171.58791866028707" cy="381.7895719228089" r="6" fill="#e74c3c" stroke="white" fill-opacity="0.7" />
<circle cx="95.07775119617224" cy="421.9329116997762" r="6" fill="#3498db" stroke="white" fill-opacity="0.7" />
<circle cx="146.55053827751195" cy="367.1275080344075" r="6" fill="#2ecc71" stroke="white" fill-opacity="0.7" />
<circle cx="114.52302631578947" cy="419.8750669970465" r="6" fill="#e74c3c" stroke="white" fill-opacity="0.7" />
<circle cx="92.66297846889952" cy="407.6494390882223" r="6" fill="#3498db" stroke="white" fill-opacity="0.7" />
<circle cx="117.57326555023923" cy="404.15022085231163" r="6" fill="#2ecc71" stroke="white" fill-opacity="0.7" />
<circle cx="180.23026315789474" cy="364.40437074621974" r="6" fill="#e74c3c" stroke="white" fill-opacity="0.7" />
<circle cx="98.25508373205741" cy="421.9081994577469" r="6" fill="#3498db" stroke="white" fill-opacity="0.7" />
<circle cx="99.6531100478469" cy="414.78186510594105" r="6" fill="#3498db" stroke="white" fill-opacity="0.7" />
<circle cx="144.64413875598086" cy="393.1597578258769" r="6" fill="#2ecc71" stroke="white" fill-opacity="0.7" />
<circle cx="114.65011961722487" cy="419.4534003918249" r="6" fill="#e74c3c" stroke="white" fill-opacity="0.7" />
<circle cx="100.0343899521531" cy="408.5964525880241" r="6" fill="#3498db" stroke="white" fill-opacity="0.7" />
<circle cx="129.9013157894737" cy="392.2149262130873" r="6" fill="#2ecc71" stroke="white" fill-opacity="0.7" />
<circle cx="168.91895933014354" cy="272.5780837955348" r="6" fill="#e74c3c" stroke="white" fill-opacity="0.7" />
<circle cx="178.70514354066984" cy="248.798273213677" r="6" fill="#e74c3c" stroke="white" fill-opacity="0.7" />
<circle cx="105.75358851674642" cy="413.0288408604884" r="6" fill="#3498db" stroke="white" fill-opacity="0.7" />
<circle cx="103.4659090909091" cy="421.4237189003421" r="6" fill="#3498db" stroke="white" fill-opacity="0.7" />
<circle cx="119.60675837320574" cy="381.58665643067553" r="6" fill="#3498db" stroke="white" fill-opacity="0.7" />
<circle cx="138.28947368421052" cy="349.4313269741622" r="6" fill="#3498db" stroke="white" fill-opacity="0.7" />
<circle cx="251.27541866028704" cy="359.592279925262" r="6" fill="#2ecc71" stroke="white" fill-opacity="0.7" />
<circle cx="266.9078947368421" cy="129.14004559298638" r="6" fill="#e74c3c" stroke="white" fill-opacity="0.7" />
<circle cx="104.86393540669856" cy="422.23207415812414" r="6" fill="#3498db" stroke="white" fill-opacity="0.7" />
<circle cx="101.6866028708134" cy="418.02412210186367" r="6" fill="#3498db" stroke="white" fill-opacity="0.7" />
<circle cx="96.2215909090909" cy="416.5826740321699" r="6" fill="#3498db" stroke="white" fill-opacity="0.7" />
<circle cx="239.96411483253587" cy="372.69920723375077" r="6" fill="#2ecc71" stroke="white" fill-opacity="0.7" />
<circle cx="154.68450956937798" cy="300.1964773562577" r="6" fill="#e74c3c" stroke="white" fill-opacity="0.7" />
<circle cx="150.74461722488036" cy="310.50828543329635" r="6" fill="#e74c3c" stroke="white" fill-opacity="0.7" />
<circle cx="111.72697368421052" cy="384.25002898765996" r="6" fill="#3498db" stroke="white" fill-opacity="0.7" />
<circle cx="98.76345693779905" cy="421.69208422679446" r="6" fill="#3498db" stroke="white" fill-opacity="0.7" />
<circle cx="103.8471889952153" cy="409.4331384967314" r="6" fill="#3498db" stroke="white" fill-opacity="0.7" />
<circle cx="98.38217703349281" cy="419.91667192330374" r="6" fill="#3498db" stroke="white" fill-opacity="0.7" />
<circle cx="185.94946172248802" cy="363.1249040710176" r="6" fill="#2ecc71" stroke="white" fill-opacity="0.7" />
<circle cx="128.12200956937798" cy="387.40518668030734" r="6" fill="#e74c3c" stroke="white" fill-opacity="0.7" />
<circle cx="115.2855861244019" cy="400.9601123111896" r="6" fill="#3498db" stroke="white" fill-opacity="0.7" />
<circle cx="150.99880382775117" cy="377.6967448986511" r="6" fill="#2ecc71" stroke="white" fill-opacity="0.7" />
<circle cx="250.63995215311002" cy="132.11882279207094" r="6" fill="#e74c3c" stroke="white" fill-opacity="0.7" />
<circle cx="109.94766746411483" cy="408.0642686624026" r="6" fill="#3498db" stroke="white" fill-opacity="0.7" />
<circle cx="110.58313397129186" cy="412.2862268070301" r="6" fill="#3498db" stroke="white" fill-opacity="0.7" />
<circle cx="100.66985645933013" cy="421.3433211071757" r="6" fill="#3498db" stroke="white" fill-opacity="0.7" />
<circle cx="104.60974880382774" cy="402.77756320792133" r="6" fill="#3498db" stroke="white" fill-opacity="0.7" />
<circle cx="108.54964114832535" cy="403.1818289254184" r="6" fill="#3498db" stroke="white" fill-opacity="0.7" />
<circle cx="109.3122009569378" cy="413.2851922562804" r="6" fill="#3498db" stroke="white" fill-opacity="0.7" />
<circle cx="265.5098684210526" cy="254.05122717993558" r="6" fill="#2ecc71" stroke="white" fill-opacity="0.7" />
<circle cx="139.56040669856458" cy="353.2414234530297" r="6" fill="#e74c3c" stroke="white" fill-opacity="0.7" />
<circle cx="110.71022727272728" cy="393.11942002033794" r="6" fill="#3498db" stroke="white" fill-opacity="0.7" />
<circle cx="102.70334928229664" cy="410.80709036602644" r="6" fill="#3498db" stroke="white" fill-opacity="0.7" />
<circle cx="169.9357057416268" cy="378.45053265298856" r="6" fill="#2ecc71" stroke="white" fill-opacity="0.7" />
<circle cx="156.8450956937799" cy="292.73071727707776" r="6" fill="#e74c3c" stroke="white" fill-opacity="0.7" />
<circle cx="120.87769138755979" cy="384.5543412414404" r="6" fill="#3498db" stroke="white" fill-opacity="0.7" />
<circle cx="102.19497607655502" cy="413.31573867445104" r="6" fill="#3498db" stroke="white" fill-opacity="0.7" />
<circle cx="114.77721291866027" cy="384.8008470414911" r="6" fill="#3498db" stroke="white" fill-opacity="0.7" />
<circle cx="277.45663875598086" cy="341.26274178728664" r="6" fill="#2ecc71" stroke="white" fill-opacity="0.7" />
<circle cx="136.76435406698562" cy="363.4329499264866" r="6" fill="#e74c3c" stroke="white" fill-opacity="0.7" />
<circle cx="125.58014354066985" cy="360.698130733923" r="6" fill="#3498db" stroke="white" fill-opacity="0.7" />
<circle cx="270.46650717703346" cy="289.9841822999052" r="6" fill="#2ecc71" stroke="white" fill-opacity="0.7" />
<circle cx="132.6973684210526" cy="369.8587088180751" r="6" fill="#e74c3c" stroke="white" fill-opacity="0.7" />
<circle cx="116.9377990430622" cy="376.69774556916764" r="6" fill="#3498db" stroke="white" fill-opacity="0.7" />
<circle cx="245.30203349282294" cy="313.87920600247173" r="6" fill="#2ecc71" stroke="white" fill-opacity="0.7" />
<circle cx="680" cy="60" r="6" fill="#e74c3c" stroke="none" fill-opacity="1.0" />
<text x="695" y="64" font-size="10" fill="black" text-anchor="start" >PLANNER</text>
<circle cx="680" cy="80" r="6" fill="#3498db" stroke="none" fill-opacity="1.0" />
<text x="695" y="84" font-size="10" fill="black" text-anchor="start" >EXECUTOR</text>
<circle cx="680" cy="100" r="6" fill="#2ecc71" stroke="none" fill-opacity="1.0" />
<text x="695" y="104" font-size="10" fill="black" text-anchor="start" >REACTIVE</text>
<circle cx="680" cy="120" r="6" fill="#f1c40f" stroke="none" fill-opacity="1.0" />
<text x="695" y="124" font-size="10" fill="black" text-anchor="start" >MEMORY</text>
<circle cx="680" cy="140" r="6" fill="#9b59b6" stroke="none" fill-opacity="1.0" />
<text x="695" y="144" font-size="10" fill="black" text-anchor="start" >CRITIC</text>
</svg>